<svg xmlns="http://www.w3.org/2000/svg" width="192" height="192" viewBox="0 0 192 192">
  <rect width="192" height="192" rx="40" fill="#059669"/>
  <g transform="translate(40, 40)">
    <path d="M80 20V16a4 4 0 0 0-4-4H20a4 4 0 0 0-4 4v4H12a4 4 0 0 0-4 4v52a4 4 0 0 0 4 4h4v4a4 4 0 0 0 4 4h60a4 4 0 0 0 4-4v-4h4a4 4 0 0 0 4-4V24a4 4 0 0 0-4-4h-4z" fill="#ffffff"/>
    <circle cx="28" cy="64" r="8" fill="#059669"/>
    <circle cx="68" cy="64" r="8" fill="#059669"/>
    <text x="48" y="44" text-anchor="middle" fill="#059669" font-family="Arial" font-size="20" font-weight="bold">TE</text>
  </g>
</svg>
