<svg xmlns="http://www.w3.org/2000/svg" width="512" height="512" viewBox="0 0 512 512">
  <rect width="512" height="512" rx="100" fill="#059669"/>
  <g transform="translate(100, 100)">
    <path d="M220 56V44a10 10 0 0 0-10-10H54a10 10 0 0 0-10 10v12H32a10 10 0 0 0-10 10v140a10 10 0 0 0 10 10h12v12a10 10 0 0 0 10 10h168a10 10 0 0 0 10-10v-12h12a10 10 0 0 0 10-10V66a10 10 0 0 0-10-10h-12z" fill="#ffffff"/>
    <circle cx="78" cy="172" r="22" fill="#059669"/>
    <circle cx="186" cy="172" r="22" fill="#059669"/>
    <text x="132" y="120" text-anchor="middle" fill="#059669" font-family="Arial" font-size="56" font-weight="bold">TE</text>
  </g>
</svg>
