<svg xmlns="http://www.w3.org/2000/svg" width="32" height="32" viewBox="0 0 32 32">
  <rect width="32" height="32" rx="6" fill="#059669"/>
  <g transform="translate(6, 6)">
    <path d="M16 4V3a1 1 0 0 0-1-1H4a1 1 0 0 0-1 1v1H2a1 1 0 0 0-1 1v10a1 1 0 0 0 1 1h1v1a1 1 0 0 0 1 1h11a1 1 0 0 0 1-1v-1h1a1 1 0 0 0 1-1V5a1 1 0 0 0-1-1h-1z" fill="#ffffff"/>
    <circle cx="5" cy="12" r="1.5" fill="#059669"/>
    <circle cx="13" cy="12" r="1.5" fill="#059669"/>
    <text x="10" y="9" text-anchor="middle" fill="#059669" font-family="Arial" font-size="4" font-weight="bold">TE</text>
  </g>
</svg>
